<svg xmlns="http://www.w3.org/2000/svg" viewBox="0 0 100 100" preserveAspectRatio="xMidYMid" style="shape-rendering: auto; display: block; background: transparent;" width="327" height="327" xmlns:xlink="http://www.w3.org/1999/xlink"><g><g transform="rotate(0 50 50)">
  <rect fill="#904cf2" height="13" width="4" ry="1.56" rx="1.56" y="20.5" x="48">
    <animate repeatCount="indefinite" begin="-1.1382113821138211s" dur="1.2195121951219512s" keyTimes="0;1" values="1;0" attributeName="opacity"></animate>
  </rect>
</g><g transform="rotate(24 50 50)">
  <rect fill="#904cf2" height="13" width="4" ry="1.56" rx="1.56" y="20.5" x="48">
    <animate repeatCount="indefinite" begin="-1.056910569105691s" dur="1.2195121951219512s" keyTimes="0;1" values="1;0" attributeName="opacity"></animate>
  </rect>
</g><g transform="rotate(48 50 50)">
  <rect fill="#904cf2" height="13" width="4" ry="1.56" rx="1.56" y="20.5" x="48">
    <animate repeatCount="indefinite" begin="-0.975609756097561s" dur="1.2195121951219512s" keyTimes="0;1" values="1;0" attributeName="opacity"></animate>
  </rect>
</g><g transform="rotate(72 50 50)">
  <rect fill="#904cf2" height="13" width="4" ry="1.56" rx="1.56" y="20.5" x="48">
    <animate repeatCount="indefinite" begin="-0.8943089430894309s" dur="1.2195121951219512s" keyTimes="0;1" values="1;0" attributeName="opacity"></animate>
  </rect>
</g><g transform="rotate(96 50 50)">
  <rect fill="#904cf2" height="13" width="4" ry="1.56" rx="1.56" y="20.5" x="48">
    <animate repeatCount="indefinite" begin="-0.8130081300813008s" dur="1.2195121951219512s" keyTimes="0;1" values="1;0" attributeName="opacity"></animate>
  </rect>
</g><g transform="rotate(120 50 50)">
  <rect fill="#904cf2" height="13" width="4" ry="1.56" rx="1.56" y="20.5" x="48">
    <animate repeatCount="indefinite" begin="-0.7317073170731707s" dur="1.2195121951219512s" keyTimes="0;1" values="1;0" attributeName="opacity"></animate>
  </rect>
</g><g transform="rotate(144 50 50)">
  <rect fill="#904cf2" height="13" width="4" ry="1.56" rx="1.56" y="20.5" x="48">
    <animate repeatCount="indefinite" begin="-0.6504065040650406s" dur="1.2195121951219512s" keyTimes="0;1" values="1;0" attributeName="opacity"></animate>
  </rect>
</g><g transform="rotate(168 50 50)">
  <rect fill="#904cf2" height="13" width="4" ry="1.56" rx="1.56" y="20.5" x="48">
    <animate repeatCount="indefinite" begin="-0.5691056910569106s" dur="1.2195121951219512s" keyTimes="0;1" values="1;0" attributeName="opacity"></animate>
  </rect>
</g><g transform="rotate(192 50 50)">
  <rect fill="#904cf2" height="13" width="4" ry="1.56" rx="1.56" y="20.5" x="48">
    <animate repeatCount="indefinite" begin="-0.4878048780487805s" dur="1.2195121951219512s" keyTimes="0;1" values="1;0" attributeName="opacity"></animate>
  </rect>
</g><g transform="rotate(216 50 50)">
  <rect fill="#904cf2" height="13" width="4" ry="1.56" rx="1.56" y="20.5" x="48">
    <animate repeatCount="indefinite" begin="-0.4065040650406504s" dur="1.2195121951219512s" keyTimes="0;1" values="1;0" attributeName="opacity"></animate>
  </rect>
</g><g transform="rotate(240 50 50)">
  <rect fill="#904cf2" height="13" width="4" ry="1.56" rx="1.56" y="20.5" x="48">
    <animate repeatCount="indefinite" begin="-0.3252032520325203s" dur="1.2195121951219512s" keyTimes="0;1" values="1;0" attributeName="opacity"></animate>
  </rect>
</g><g transform="rotate(264 50 50)">
  <rect fill="#904cf2" height="13" width="4" ry="1.56" rx="1.56" y="20.5" x="48">
    <animate repeatCount="indefinite" begin="-0.24390243902439024s" dur="1.2195121951219512s" keyTimes="0;1" values="1;0" attributeName="opacity"></animate>
  </rect>
</g><g transform="rotate(288 50 50)">
  <rect fill="#904cf2" height="13" width="4" ry="1.56" rx="1.56" y="20.5" x="48">
    <animate repeatCount="indefinite" begin="-0.16260162601626016s" dur="1.2195121951219512s" keyTimes="0;1" values="1;0" attributeName="opacity"></animate>
  </rect>
</g><g transform="rotate(312 50 50)">
  <rect fill="#904cf2" height="13" width="4" ry="1.56" rx="1.56" y="20.5" x="48">
    <animate repeatCount="indefinite" begin="-0.08130081300813008s" dur="1.2195121951219512s" keyTimes="0;1" values="1;0" attributeName="opacity"></animate>
  </rect>
</g><g transform="rotate(336 50 50)">
  <rect fill="#904cf2" height="13" width="4" ry="1.56" rx="1.56" y="20.5" x="48">
    <animate repeatCount="indefinite" begin="0s" dur="1.2195121951219512s" keyTimes="0;1" values="1;0" attributeName="opacity"></animate>
  </rect>
</g><g></g></g><!-- [ldio] generated by https://loading.io --></svg>